<mxfile host="app.diagrams.net" modified="2023-05-12T15:52:41.007Z" agent="Mozilla/5.0 (X11; Linux x86_64) AppleWebKit/537.36 (KHTML, like Gecko) Chrome/113.0.0.0 Safari/537.36" version="21.2.9" etag="PtGtXBaJ6B0H0vwKS0kw" type="github">
  <diagram name="Page-1" id="v9cuawATX230jey-kj5U">
    <mxGraphModel>
      <root>
        <mxCell id="0" />
        <mxCell id="1" parent="0" />
      </root>
    </mxGraphModel>
  </diagram>
</mxfile>
